<svg id="basic-headset_98105" xmlns="http://www.w3.org/2000/svg" width="47.869" height="41.137" viewBox="0 0 47.869 41.137">
  <path id="Path_478" data-name="Path 478" d="M39.641,21.455h-.748v-3.74C38.893,17.588,38.722,5,23.934,5S8.975,17.588,8.975,17.715v3.74H8.227a8.227,8.227,0,0,0,0,16.455h2.244V17.715c0-.458.153-11.219,13.463-11.219C37.2,6.5,37.4,17.258,37.4,17.715V40.4l-9.723,3.889V41.65h-7.48v4.488H27.07l11.824-4.729v-3.5h.748a8.227,8.227,0,1,0,0-16.455ZM8.975,36.414H8.227a6.732,6.732,0,0,1,0-13.463h.748V36.414Zm12.715,8.227v-1.5h4.488v1.5Zm17.951-8.227h-.748V22.951h.748a6.732,6.732,0,0,1,0,13.463Z" transform="translate(0 -5)" fill="#23a7b0"/>
</svg>
