<svg id="basic-geolocalize05_98076" xmlns="http://www.w3.org/2000/svg" width="48.902" height="38.893" viewBox="0 0 48.902 38.893">
  <path id="Path_475" data-name="Path 475" d="M34.48,17.741a3.74,3.74,0,1,0-3.74,3.739A3.745,3.745,0,0,0,34.48,17.741Zm-5.984,0a2.244,2.244,0,1,1,2.244,2.243A2.247,2.247,0,0,1,28.5,17.741Z" transform="translate(-6.288 -8.016)" fill="#23a7b0"/>
  <path id="Path_476" data-name="Path 476" d="M28.453,37.849l.58-.709c.406-.5,9.942-12.23,9.909-19.907C38.916,11.04,34.219,6,28.471,6,22.7,6,18,11.04,18,17.236c0,7.674,9.472,19.406,9.875,19.9ZM28.471,7.5c4.927,0,8.953,4.371,8.975,9.744.026,6.1-6.911,15.53-8.99,18.216C26.39,32.767,19.5,23.34,19.5,17.236,19.5,11.865,23.522,7.5,28.471,7.5Z" transform="translate(-4.02 -6)" fill="#23a7b0"/>
  <path id="Path_477" data-name="Path 477" d="M31.988,36v1.5h6.29l7.4,13.463H1.839L9.243,37.5h6.29V36H8.359L-.691,52.455h48.9L39.161,36Z" transform="translate(0.691 -13.561)" fill="#23a7b0"/>
</svg>
