<svg xmlns="http://www.w3.org/2000/svg" width="12.104" height="15.631" viewBox="0 0 12.104 15.631">
  <path id="Path_496" data-name="Path 496" d="M218.466,83.981c-.013.045-.026.083-.035.121a13.192,13.192,0,0,1-1.228,3.793,11.64,11.64,0,0,1-.949,1.418c-.04.051-.077.117-.156.1s-.093-.1-.1-.165a12.027,12.027,0,0,1-.124-2.059c.029-.9.141-1.208,1.3-6.081a.336.336,0,0,0-.026-.2,3.424,3.424,0,0,1-.09-2.277c.524-1.662,2.408-1.79,2.738-.418.2.848-.334,1.958-.746,3.6-.341,1.354,1.252,2.316,2.614,1.328,1.256-.911,1.744-3.1,1.651-4.643-.183-3.087-3.567-3.754-5.714-2.76-2.462,1.138-3.021,4.189-1.91,5.584.141.177.25.285.2.465-.072.279-.135.561-.212.838a.3.3,0,0,1-.439.2,2.508,2.508,0,0,1-1.028-.77,4.87,4.87,0,0,1,.034-5.437,6.532,6.532,0,0,1,6.3-2.78,5.338,5.338,0,0,1,4.909,4.409,7.343,7.343,0,0,1-1.348,5.158c-1.6,1.983-4.191,2.115-5.387.9A4.035,4.035,0,0,1,218.466,83.981Z" transform="translate(-213.405 -73.785)" fill-rule="evenodd"/>
</svg>
