<svg xmlns="http://www.w3.org/2000/svg" width="13.125" height="15.845" viewBox="0 0 13.125 15.845">
  <g id="Group_51" data-name="Group 51" transform="translate(-137.421 -189.198)">
    <path id="Path_492" data-name="Path 492" d="M142.609,189.2h-.9l-.606,2.331-.63-2.331h-.937c.188.549.383,1.1.57,1.653a14.778,14.778,0,0,1,.544,1.878v2.4h.889v-2.4Zm2.376,4.5v-1.549a1.727,1.727,0,0,0-.25-1.042,1.189,1.189,0,0,0-1.868,0,1.72,1.72,0,0,0-.25,1.042V193.7a1.719,1.719,0,0,0,.25,1.041,1.189,1.189,0,0,0,1.868,0A1.726,1.726,0,0,0,144.985,193.7Zm-.8.151c0,.41-.123.614-.382.614s-.383-.2-.383-.614v-1.861c0-.409.124-.613.383-.613s.382.2.382.613Zm3.767,1.281V190.71h-.8v3.381c-.178.251-.347.375-.507.375-.108,0-.17-.063-.187-.187a1.657,1.657,0,0,1-.011-.312V190.71h-.8v3.5a2.248,2.248,0,0,0,.071.658.493.493,0,0,0,.517.329,1.289,1.289,0,0,0,.916-.544v.482Z"/>
    <g id="Group_47" data-name="Group 47">
      <path id="Path_493" data-name="Path 493" d="M145.436,199.592a.572.572,0,0,0-.4.193v2.669a.566.566,0,0,0,.4.194c.229,0,.345-.194.345-.59v-1.869C145.781,199.795,145.665,199.592,145.436,199.592Z"/>
      <path id="Path_494" data-name="Path 494" d="M148.38,199.592q-.4,0-.4.608v.4h.793v-.4C148.775,199.795,148.642,199.592,148.38,199.592Z"/>
      <path id="Path_495" data-name="Path 495" d="M150.318,197.367a1.654,1.654,0,0,0-1.418-1.289,44.021,44.021,0,0,0-4.915-.183,43.994,43.994,0,0,0-4.914.183,1.653,1.653,0,0,0-1.419,1.289,21.086,21.086,0,0,0,0,6.205,1.658,1.658,0,0,0,1.419,1.29,44.232,44.232,0,0,0,4.914.181,44.268,44.268,0,0,0,4.916-.181,1.657,1.657,0,0,0,1.418-1.29,21.13,21.13,0,0,0,0-6.205Zm-9.153.895h-.951v5.047h-.882v-5.047H138.4v-.828h2.766Zm2.4,5.047h-.793v-.478a1.273,1.273,0,0,1-.907.539.486.486,0,0,1-.511-.326,2.21,2.21,0,0,1-.07-.651v-3.462h.793v3.224a2.537,2.537,0,0,0,.007.308c.02.123.08.185.186.185.158,0,.325-.123.5-.371v-3.346h.793ZM146.575,202a3.49,3.49,0,0,1-.081.882.627.627,0,0,1-.634.492,1.079,1.079,0,0,1-.819-.485v.424h-.793v-5.875h.793v1.919a1.075,1.075,0,0,1,.819-.475.627.627,0,0,1,.634.494,3.37,3.37,0,0,1,.081.88Zm2.993-.731h-1.586v.775c0,.407.133.608.4.608a.34.34,0,0,0,.354-.318,4.776,4.776,0,0,0,.018-.537h.809v.116c0,.254-.01.431-.018.51a1.124,1.124,0,0,1-.184.476,1.1,1.1,0,0,1-.96.475,1.134,1.134,0,0,1-.959-.449,1.691,1.691,0,0,1-.255-1.029v-1.533a1.7,1.7,0,0,1,.245-1.032,1.127,1.127,0,0,1,.95-.449,1.1,1.1,0,0,1,.935.449,1.723,1.723,0,0,1,.246,1.032Z"/>
    </g>
  </g>
</svg>
